<svg viewBox="0 0 1000 300" xmlns="http://www.w3.org/2000/svg" role="img" aria-label="Rohith M — IT and Cybersecurity">
  <defs>
    <linearGradient id="sky" x1="0" y1="0" x2="0" y2="1"><stop offset="0" stop-color="#04060f"/><stop offset="0.26" stop-color="#0a0f24"/><stop offset="0.5" stop-color="#111a38"/><stop offset="0.72" stop-color="#182447"/><stop offset="0.88" stop-color="#20305a"/><stop offset="1" stop-color="#2a3b66"/></linearGradient>
    <radialGradient id="glow" cx="78%" cy="20%" r="44%"><stop offset="0" stop-color="#cdd6ff" stop-opacity="0.5"/><stop offset="40%" stop-color="#cdd6ff" stop-opacity="0.20"/><stop offset="100%" stop-color="#cdd6ff" stop-opacity="0"/></radialGradient>
    <linearGradient id="cloud" x1="0" y1="0" x2="0" y2="1"><stop offset="0" stop-color="#1a2240" stop-opacity="0.7"/><stop offset="1" stop-color="#34406a" stop-opacity="0.85"/></linearGradient>
    <radialGradient id="namebg" cx="50%" cy="50%" r="50%"><stop offset="0" stop-color="#04060f" stop-opacity="0.5"/><stop offset="100%" stop-color="#04060f" stop-opacity="0"/></radialGradient>
    <filter id="blur"><feGaussianBlur stdDeviation="7"/></filter>
    <filter id="mblur"><feGaussianBlur stdDeviation="6"/></filter>
    <filter id="nglow" x="-30%" y="-60%" width="160%" height="220%"><feGaussianBlur stdDeviation="6" result="b"/><feMerge><feMergeNode in="b"/><feMergeNode in="SourceGraphic"/></feMerge></filter>
  </defs>
  <style>
    text{font-family:"Helvetica Neue",Arial,sans-serif}
    .tw{animation:tw 3s ease-in-out infinite}@keyframes tw{0%,100%{opacity:.25}50%{opacity:1}}
    .cloud{animation:drift 26s ease-in-out infinite}@keyframes drift{0%,100%{transform:translateX(0)}50%{transform:translateX(26px)}}
    .petal{transform:translate(var(--x),-30px);animation-name:fall;animation-timing-function:linear;animation-iteration-count:infinite}
    @keyframes fall{0%{transform:translate(var(--x),-30px) rotate(0)}100%{transform:translate(calc(var(--x) - 40px),330px) rotate(220deg)}}
    .name{font-weight:300;letter-spacing:13px;opacity:0;animation:rise 1.3s ease-out .2s forwards}
    .sub{font-family:"JetBrains Mono","Consolas",monospace;letter-spacing:8px;opacity:0;animation:rise 1.3s ease-out 1s forwards}
    @keyframes rise{from{opacity:0;transform:translateY(8px)}to{opacity:1;transform:translateY(0)}}
    @media (prefers-reduced-motion:reduce){*{animation:none!important;opacity:1!important}.petal{opacity:0!important}}
  </style>
  <rect width="1000" height="300" fill="url(#sky)"/>
  <rect width="1000" height="300" fill="url(#glow)"/>
  <circle cx="820" cy="70" r="22" fill="#eef2ff" filter="url(#mblur)" opacity="0.9"/><circle cx="820" cy="70" r="20" fill="#f3f6ff"/><circle cx="827" cy="66" r="20" fill="#04060f" opacity="0.55"/>
  <circle class="tw" style="animation-delay:1.4s;animation-duration:3.0s" cx="341" cy="71" r="1.2" fill="#eef2ff"/><circle class="tw" style="animation-delay:0.7s;animation-duration:3.6s" cx="833" cy="35" r="1.3" fill="#eef2ff"/><circle class="tw" style="animation-delay:2.2s;animation-duration:3.0s" cx="557" cy="75" r="1.5" fill="#eef2ff"/><circle class="tw" style="animation-delay:0.5s;animation-duration:3.1s" cx="94" cy="27" r="1.1" fill="#eef2ff"/><circle class="tw" style="animation-delay:2.9s;animation-duration:2.6s" cx="975" cy="74" r="1.0" fill="#eef2ff"/><circle class="tw" style="animation-delay:2.5s;animation-duration:3.1s" cx="591" cy="85" r="1.4" fill="#eef2ff"/><circle class="tw" style="animation-delay:2.4s;animation-duration:2.5s" cx="378" cy="88" r="1.1" fill="#eef2ff"/><circle class="tw" style="animation-delay:2.0s;animation-duration:2.5s" cx="115" cy="46" r="1.1" fill="#eef2ff"/><circle class="tw" style="animation-delay:3.0s;animation-duration:4.1s" cx="738" cy="51" r="1.2" fill="#eef2ff"/><circle class="tw" style="animation-delay:2.0s;animation-duration:2.4s" cx="311" cy="103" r="1.0" fill="#eef2ff"/><circle class="tw" style="animation-delay:0.4s;animation-duration:2.5s" cx="492" cy="57" r="0.8" fill="#eef2ff"/><circle class="tw" style="animation-delay:0.7s;animation-duration:3.2s" cx="806" cy="48" r="0.7" fill="#eef2ff"/><circle class="tw" style="animation-delay:1.3s;animation-duration:3.6s" cx="912" cy="75" r="0.7" fill="#eef2ff"/><circle class="tw" style="animation-delay:2.6s;animation-duration:3.0s" cx="924" cy="29" r="1.4" fill="#eef2ff"/><circle class="tw" style="animation-delay:1.1s;animation-duration:2.9s" cx="445" cy="57" r="1.3" fill="#eef2ff"/><circle class="tw" style="animation-delay:2.0s;animation-duration:2.4s" cx="104" cy="34" r="0.8" fill="#eef2ff"/><circle class="tw" style="animation-delay:0.8s;animation-duration:2.7s" cx="871" cy="87" r="0.8" fill="#eef2ff"/><circle class="tw" style="animation-delay:1.0s;animation-duration:2.7s" cx="567" cy="59" r="1.2" fill="#eef2ff"/><circle class="tw" style="animation-delay:2.0s;animation-duration:4.0s" cx="899" cy="77" r="1.6" fill="#eef2ff"/><circle class="tw" style="animation-delay:2.0s;animation-duration:3.6s" cx="487" cy="111" r="1.6" fill="#eef2ff"/><circle class="tw" style="animation-delay:1.4s;animation-duration:3.2s" cx="427" cy="63" r="1.0" fill="#eef2ff"/><circle class="tw" style="animation-delay:1.3s;animation-duration:2.6s" cx="215" cy="20" r="1.6" fill="#eef2ff"/><circle class="tw" style="animation-delay:1.7s;animation-duration:3.5s" cx="635" cy="18" r="0.7" fill="#eef2ff"/><circle class="tw" style="animation-delay:2.6s;animation-duration:3.7s" cx="392" cy="90" r="0.6" fill="#eef2ff"/><circle class="tw" style="animation-delay:1.0s;animation-duration:3.2s" cx="172" cy="93" r="0.9" fill="#eef2ff"/><circle class="tw" style="animation-delay:3.0s;animation-duration:3.4s" cx="145" cy="26" r="1.4" fill="#eef2ff"/><circle class="tw" style="animation-delay:0.3s;animation-duration:3.1s" cx="515" cy="51" r="0.7" fill="#eef2ff"/><circle class="tw" style="animation-delay:0.5s;animation-duration:2.4s" cx="291" cy="73" r="1.4" fill="#eef2ff"/><circle class="tw" style="animation-delay:1.6s;animation-duration:2.5s" cx="560" cy="58" r="0.7" fill="#eef2ff"/><circle class="tw" style="animation-delay:2.6s;animation-duration:3.9s" cx="560" cy="50" r="1.6" fill="#eef2ff"/><circle class="tw" style="animation-delay:0.5s;animation-duration:4.0s" cx="287" cy="78" r="1.0" fill="#eef2ff"/><circle class="tw" style="animation-delay:1.0s;animation-duration:2.9s" cx="565" cy="81" r="1.4" fill="#eef2ff"/><circle class="tw" style="animation-delay:2.6s;animation-duration:4.1s" cx="850" cy="112" r="1.6" fill="#eef2ff"/><circle class="tw" style="animation-delay:0.7s;animation-duration:3.5s" cx="857" cy="63" r="1.3" fill="#eef2ff"/><circle class="tw" style="animation-delay:0.1s;animation-duration:3.0s" cx="384" cy="105" r="0.6" fill="#eef2ff"/><circle class="tw" style="animation-delay:2.9s;animation-duration:3.3s" cx="285" cy="36" r="1.3" fill="#eef2ff"/><circle class="tw" style="animation-delay:2.9s;animation-duration:3.2s" cx="979" cy="104" r="1.6" fill="#eef2ff"/><circle class="tw" style="animation-delay:0.6s;animation-duration:2.8s" cx="245" cy="25" r="0.8" fill="#eef2ff"/><circle class="tw" style="animation-delay:1.4s;animation-duration:3.8s" cx="659" cy="90" r="1.4" fill="#eef2ff"/><circle class="tw" style="animation-delay:2.0s;animation-duration:4.3s" cx="838" cy="94" r="0.7" fill="#eef2ff"/><circle class="tw" style="animation-delay:1.4s;animation-duration:2.8s" cx="821" cy="103" r="1.4" fill="#eef2ff"/><circle class="tw" style="animation-delay:2.4s;animation-duration:4.4s" cx="828" cy="93" r="0.9" fill="#eef2ff"/><circle class="tw" style="animation-delay:2.8s;animation-duration:3.9s" cx="425" cy="71" r="1.0" fill="#eef2ff"/><circle class="tw" style="animation-delay:1.8s;animation-duration:3.4s" cx="194" cy="28" r="0.6" fill="#eef2ff"/>
  <g filter="url(#blur)" opacity="0.4">
    <ellipse class="cloud" cx="240" cy="150" rx="150" ry="20" fill="url(#cloud)"/>
    <ellipse class="cloud" style="animation-delay:-8s" cx="640" cy="120" rx="180" ry="16" fill="url(#cloud)"/>
    <ellipse class="cloud" style="animation-delay:-14s" cx="820" cy="178" rx="140" ry="18" fill="url(#cloud)"/>
  </g>
  <path d="M720,70 q6,-7 12,0 q6,-7 12,0" fill="none" stroke="#0a1230" stroke-width="2" stroke-linecap="round" opacity="0.8"/><path d="M752,60 q6,-7 12,0 q6,-7 12,0" fill="none" stroke="#0a1230" stroke-width="2" stroke-linecap="round" opacity="0.8"/><path d="M784,76 q6,-7 12,0 q6,-7 12,0" fill="none" stroke="#0a1230" stroke-width="2" stroke-linecap="round" opacity="0.8"/>
  <path d="M0,250 Q260,214 520,244 T1000,240 V300 H0 Z" fill="#10183a" opacity="0.55"/>
  <g><rect x="0" y="245" width="54" height="59" fill="#08060f"/><rect x="6" y="253" width="4" height="5" fill="#86ecff" opacity="0.73"/><rect x="18" y="253" width="4" height="5" fill="#9b8cff" opacity="0.59"/><rect x="6" y="265" width="4" height="5" fill="#86ecff" opacity="0.75"/><rect x="18" y="265" width="4" height="5" fill="#86ecff" opacity="0.8"/><rect x="30" y="265" width="4" height="5" fill="#9b8cff" opacity="0.61"/><rect x="42" y="265" width="4" height="5" fill="#9b8cff" opacity="0.81"/><rect x="6" y="277" width="4" height="5" fill="#9b8cff" opacity="0.73"/><rect x="30" y="277" width="4" height="5" fill="#86ecff" opacity="0.68"/><rect x="42" y="277" width="4" height="5" fill="#86ecff" opacity="0.81"/><rect x="30" y="289" width="4" height="5" fill="#9b8cff" opacity="0.84"/><rect x="18" y="301" width="4" height="5" fill="#86ecff" opacity="0.83"/><rect x="59" y="250" width="37" height="54" fill="#08060f"/><rect x="77" y="270" width="4" height="5" fill="#86ecff" opacity="0.86"/><rect x="89" y="270" width="4" height="5" fill="#9b8cff" opacity="0.69"/><rect x="77" y="294" width="4" height="5" fill="#9b8cff" opacity="0.74"/><rect x="104" y="248" width="68" height="56" fill="#08060f"/><rect x="110" y="256" width="4" height="5" fill="#ffd58a" opacity="0.74"/><rect x="134" y="256" width="4" height="5" fill="#9b8cff" opacity="0.81"/><rect x="158" y="256" width="4" height="5" fill="#9b8cff" opacity="0.71"/><rect x="134" y="268" width="4" height="5" fill="#86ecff" opacity="0.98"/><rect x="110" y="280" width="4" height="5" fill="#9b8cff" opacity="0.69"/><rect x="176" y="222" width="37" height="82" fill="#08060f"/><rect x="194" y="230" width="4" height="5" fill="#ffd58a" opacity="0.61"/><rect x="206" y="230" width="4" height="5" fill="#ffd58a" opacity="0.96"/><rect x="194" y="242" width="4" height="5" fill="#ffd58a" opacity="0.8"/><rect x="206" y="254" width="4" height="5" fill="#ffd58a" opacity="0.99"/><rect x="206" y="266" width="4" height="5" fill="#86ecff" opacity="0.63"/><rect x="182" y="278" width="4" height="5" fill="#86ecff" opacity="0.56"/><rect x="206" y="278" width="4" height="5" fill="#ffd58a" opacity="0.55"/><rect x="216" y="249" width="36" height="55" fill="#08060f"/><rect x="222" y="269" width="4" height="5" fill="#9b8cff" opacity="0.91"/><rect x="234" y="281" width="4" height="5" fill="#9b8cff" opacity="0.73"/><rect x="222" y="293" width="4" height="5" fill="#86ecff" opacity="0.75"/><rect x="234" y="293" width="4" height="5" fill="#9b8cff" opacity="0.57"/><rect x="257" y="250" width="60" height="54" fill="#08060f"/><rect x="263" y="258" width="4" height="5" fill="#86ecff" opacity="0.79"/><rect x="299" y="258" width="4" height="5" fill="#86ecff" opacity="0.83"/><rect x="263" y="270" width="4" height="5" fill="#ffd58a" opacity="0.98"/><rect x="299" y="270" width="4" height="5" fill="#ffd58a" opacity="1.0"/><rect x="287" y="282" width="4" height="5" fill="#86ecff" opacity="0.89"/><rect x="299" y="294" width="4" height="5" fill="#9b8cff" opacity="0.71"/><rect x="320" y="219" width="39" height="85" fill="#08060f"/><rect x="326" y="239" width="4" height="5" fill="#9b8cff" opacity="0.94"/><rect x="350" y="239" width="4" height="5" fill="#ffd58a" opacity="0.96"/><rect x="338" y="251" width="4" height="5" fill="#9b8cff" opacity="0.9"/><rect x="350" y="251" width="4" height="5" fill="#86ecff" opacity="0.83"/><rect x="350" y="263" width="4" height="5" fill="#86ecff" opacity="0.92"/><rect x="338" y="275" width="4" height="5" fill="#9b8cff" opacity="0.77"/><rect x="326" y="299" width="4" height="5" fill="#9b8cff" opacity="0.98"/><rect x="364" y="202" width="37" height="102" fill="#08060f"/><rect x="370" y="222" width="4" height="5" fill="#86ecff" opacity="0.76"/><rect x="382" y="222" width="4" height="5" fill="#ffd58a" opacity="0.83"/><rect x="382" y="246" width="4" height="5" fill="#9b8cff" opacity="0.6"/><rect x="382" y="258" width="4" height="5" fill="#86ecff" opacity="0.75"/><rect x="370" y="270" width="4" height="5" fill="#9b8cff" opacity="0.73"/><rect x="382" y="282" width="4" height="5" fill="#86ecff" opacity="0.56"/><rect x="407" y="240" width="41" height="64" fill="#08060f"/><rect x="413" y="260" width="4" height="5" fill="#9b8cff" opacity="0.61"/><rect x="425" y="260" width="4" height="5" fill="#9b8cff" opacity="0.84"/><rect x="425" y="284" width="4" height="5" fill="#ffd58a" opacity="0.65"/><rect x="425" y="296" width="4" height="5" fill="#9b8cff" opacity="0.74"/><rect x="437" y="296" width="4" height="5" fill="#9b8cff" opacity="0.71"/><rect x="455" y="218" width="37" height="86" fill="#08060f"/><rect x="485" y="250" width="4" height="5" fill="#ffd58a" opacity="0.9"/><rect x="485" y="262" width="4" height="5" fill="#86ecff" opacity="0.76"/><rect x="485" y="274" width="4" height="5" fill="#9b8cff" opacity="0.79"/><rect x="461" y="298" width="4" height="5" fill="#86ecff" opacity="0.67"/><rect x="498" y="251" width="59" height="53" fill="#08060f"/><rect x="540" y="295" width="4" height="5" fill="#9b8cff" opacity="0.95"/><rect x="560" y="219" width="36" height="85" fill="#08060f"/><rect x="566" y="227" width="4" height="5" fill="#ffd58a" opacity="0.61"/><rect x="578" y="227" width="4" height="5" fill="#ffd58a" opacity="0.69"/><rect x="566" y="251" width="4" height="5" fill="#ffd58a" opacity="0.9"/><rect x="566" y="263" width="4" height="5" fill="#9b8cff" opacity="0.84"/><rect x="566" y="275" width="4" height="5" fill="#86ecff" opacity="0.99"/><rect x="578" y="275" width="4" height="5" fill="#86ecff" opacity="0.73"/><rect x="578" y="299" width="4" height="5" fill="#ffd58a" opacity="1.0"/><rect x="604" y="236" width="42" height="68" fill="#08060f"/><rect x="610" y="256" width="4" height="5" fill="#ffd58a" opacity="0.56"/><rect x="610" y="268" width="4" height="5" fill="#ffd58a" opacity="0.78"/><rect x="622" y="268" width="4" height="5" fill="#86ecff" opacity="0.6"/><rect x="610" y="280" width="4" height="5" fill="#86ecff" opacity="0.59"/><rect x="622" y="280" width="4" height="5" fill="#86ecff" opacity="0.67"/><rect x="634" y="280" width="4" height="5" fill="#ffd58a" opacity="0.93"/><rect x="651" y="220" width="43" height="84" fill="#08060f"/><rect x="657" y="240" width="4" height="5" fill="#ffd58a" opacity="0.58"/><rect x="657" y="252" width="4" height="5" fill="#86ecff" opacity="0.84"/><rect x="681" y="252" width="4" height="5" fill="#86ecff" opacity="0.58"/><rect x="681" y="264" width="4" height="5" fill="#9b8cff" opacity="0.74"/><rect x="681" y="276" width="4" height="5" fill="#9b8cff" opacity="0.66"/><rect x="657" y="288" width="4" height="5" fill="#86ecff" opacity="0.67"/><rect x="669" y="288" width="4" height="5" fill="#ffd58a" opacity="0.83"/><rect x="657" y="300" width="4" height="5" fill="#ffd58a" opacity="0.78"/><rect x="669" y="300" width="4" height="5" fill="#ffd58a" opacity="0.91"/><rect x="696" y="219" width="53" height="85" fill="#08060f"/><rect x="702" y="227" width="4" height="5" fill="#86ecff" opacity="0.88"/><rect x="726" y="227" width="4" height="5" fill="#ffd58a" opacity="0.66"/><rect x="726" y="251" width="4" height="5" fill="#86ecff" opacity="0.99"/><rect x="714" y="275" width="4" height="5" fill="#86ecff" opacity="0.56"/><rect x="714" y="287" width="4" height="5" fill="#9b8cff" opacity="0.93"/><rect x="702" y="299" width="4" height="5" fill="#86ecff" opacity="0.86"/><rect x="714" y="299" width="4" height="5" fill="#86ecff" opacity="0.62"/><rect x="738" y="299" width="4" height="5" fill="#ffd58a" opacity="0.99"/><rect x="757" y="248" width="45" height="56" fill="#08060f"/><rect x="775" y="256" width="4" height="5" fill="#ffd58a" opacity="0.65"/><rect x="787" y="256" width="4" height="5" fill="#ffd58a" opacity="0.72"/><rect x="787" y="268" width="4" height="5" fill="#9b8cff" opacity="0.9"/><rect x="763" y="280" width="4" height="5" fill="#86ecff" opacity="0.61"/><rect x="763" y="292" width="4" height="5" fill="#9b8cff" opacity="0.65"/><rect x="808" y="231" width="46" height="73" fill="#08060f"/><rect x="838" y="251" width="4" height="5" fill="#ffd58a" opacity="0.62"/><rect x="838" y="263" width="4" height="5" fill="#9b8cff" opacity="0.95"/><rect x="814" y="287" width="4" height="5" fill="#9b8cff" opacity="0.89"/><rect x="814" y="299" width="4" height="5" fill="#9b8cff" opacity="0.81"/><rect x="856" y="218" width="38" height="86" fill="#08060f"/><rect x="874" y="226" width="4" height="5" fill="#86ecff" opacity="0.57"/><rect x="862" y="250" width="4" height="5" fill="#86ecff" opacity="0.83"/><rect x="862" y="262" width="4" height="5" fill="#86ecff" opacity="0.89"/><rect x="874" y="274" width="4" height="5" fill="#9b8cff" opacity="0.76"/><rect x="874" y="286" width="4" height="5" fill="#86ecff" opacity="0.65"/><rect x="886" y="298" width="4" height="5" fill="#9b8cff" opacity="0.68"/><rect x="896" y="223" width="47" height="81" fill="#08060f"/><rect x="902" y="231" width="4" height="5" fill="#9b8cff" opacity="0.84"/><rect x="914" y="231" width="4" height="5" fill="#86ecff" opacity="0.7"/><rect x="926" y="243" width="4" height="5" fill="#ffd58a" opacity="0.58"/><rect x="902" y="255" width="4" height="5" fill="#9b8cff" opacity="0.59"/><rect x="914" y="255" width="4" height="5" fill="#ffd58a" opacity="0.68"/><rect x="926" y="267" width="4" height="5" fill="#9b8cff" opacity="0.64"/><rect x="926" y="279" width="4" height="5" fill="#ffd58a" opacity="0.58"/><rect x="950" y="227" width="68" height="77" fill="#08060f"/><rect x="956" y="235" width="4" height="5" fill="#86ecff" opacity="0.61"/><rect x="992" y="235" width="4" height="5" fill="#9b8cff" opacity="0.78"/><rect x="968" y="247" width="4" height="5" fill="#ffd58a" opacity="0.73"/><rect x="980" y="247" width="4" height="5" fill="#ffd58a" opacity="0.86"/><rect x="980" y="259" width="4" height="5" fill="#ffd58a" opacity="0.55"/><rect x="956" y="271" width="4" height="5" fill="#86ecff" opacity="0.87"/><rect x="980" y="271" width="4" height="5" fill="#ffd58a" opacity="0.58"/><rect x="956" y="283" width="4" height="5" fill="#ffd58a" opacity="0.89"/><rect x="980" y="283" width="4" height="5" fill="#86ecff" opacity="0.93"/><rect x="992" y="283" width="4" height="5" fill="#86ecff" opacity="0.66"/><rect x="1004" y="283" width="4" height="5" fill="#9b8cff" opacity="0.69"/><rect x="992" y="295" width="4" height="5" fill="#9b8cff" opacity="0.73"/></g>
  <g class="petal" style="--x:731px;animation-duration:7.6s;animation-delay:5.0s"><path d="M0,0 C4,-5 9,-4 7,2 C6,6 1,6 0,0 Z" fill="#d8d0ff" opacity="0.8" transform="scale(1.4)"/></g><g class="petal" style="--x:733px;animation-duration:10.7s;animation-delay:0.9s"><path d="M0,0 C4,-5 9,-4 7,2 C6,6 1,6 0,0 Z" fill="#d8d0ff" opacity="0.8" transform="scale(1.1)"/></g><g class="petal" style="--x:81px;animation-duration:7.1s;animation-delay:5.8s"><path d="M0,0 C4,-5 9,-4 7,2 C6,6 1,6 0,0 Z" fill="#d8d0ff" opacity="0.8" transform="scale(1.2)"/></g><g class="petal" style="--x:599px;animation-duration:10.0s;animation-delay:0.8s"><path d="M0,0 C4,-5 9,-4 7,2 C6,6 1,6 0,0 Z" fill="#d8d0ff" opacity="0.8" transform="scale(1.4)"/></g><g class="petal" style="--x:259px;animation-duration:10.3s;animation-delay:1.3s"><path d="M0,0 C4,-5 9,-4 7,2 C6,6 1,6 0,0 Z" fill="#d8d0ff" opacity="0.8" transform="scale(1.0)"/></g><g class="petal" style="--x:359px;animation-duration:9.0s;animation-delay:4.6s"><path d="M0,0 C4,-5 9,-4 7,2 C6,6 1,6 0,0 Z" fill="#d8d0ff" opacity="0.8" transform="scale(1.0)"/></g><g class="petal" style="--x:617px;animation-duration:8.7s;animation-delay:0.8s"><path d="M0,0 C4,-5 9,-4 7,2 C6,6 1,6 0,0 Z" fill="#d8d0ff" opacity="0.8" transform="scale(1.3)"/></g>
  <ellipse cx="500" cy="108" rx="360" ry="80" fill="url(#namebg)"/>
  <text class="name" x="500" y="118" text-anchor="middle" font-size="52" fill="#f4f7ff" filter="url(#nglow)">ROHITH M</text>
  <text class="sub" x="500" y="156" text-anchor="middle" font-size="12.5" fill="#aab8d8" opacity="0.9">IT  ·  SECURITY  ·  CLOUD</text>
</svg>