<svg viewBox="0 0 1000 300" xmlns="http://www.w3.org/2000/svg" role="img" aria-label="Rohith M — IT and Cybersecurity">
  <defs>
    <linearGradient id="sky" x1="0" y1="0" x2="0" y2="1"><stop offset="0" stop-color="#2f6fd0"/><stop offset="0.28" stop-color="#4f8fdf"/><stop offset="0.55" stop-color="#79b0ea"/><stop offset="0.78" stop-color="#a8cef3"/><stop offset="0.92" stop-color="#d6ebfb"/><stop offset="1" stop-color="#eef7ff"/></linearGradient>
    <radialGradient id="glow" cx="62%" cy="22%" r="44%"><stop offset="0" stop-color="#fffdf0" stop-opacity="0.85"/><stop offset="40%" stop-color="#fffdf0" stop-opacity="0.34"/><stop offset="100%" stop-color="#fffdf0" stop-opacity="0"/></radialGradient>
    <linearGradient id="cloud" x1="0" y1="0" x2="0" y2="1"><stop offset="0" stop-color="#ffffff" stop-opacity="0.7"/><stop offset="1" stop-color="#dfeaf6" stop-opacity="0.85"/></linearGradient>
    <linearGradient id="rule" x1="0" y1="0" x2="1" y2="0"><stop offset="0" stop-color="#15233f" stop-opacity="0"/><stop offset="0.5" stop-color="#15233f"/><stop offset="1" stop-color="#15233f" stop-opacity="0"/></linearGradient>
    <filter id="blur"><feGaussianBlur stdDeviation="7"/></filter>
    <filter id="mblur"><feGaussianBlur stdDeviation="6"/></filter>
    <filter id="nglow" x="-30%" y="-60%" width="160%" height="220%"><feGaussianBlur stdDeviation="6" result="b"/><feMerge><feMergeNode in="b"/><feMergeNode in="SourceGraphic"/></feMerge></filter>
    <clipPath id="round"><rect x="0" y="0" width="1000" height="300" rx="22" ry="22"/></clipPath>
  </defs>
  <style>
    text{font-family:"Helvetica Neue",Arial,sans-serif}
    .tw{animation:tw 3s ease-in-out infinite}@keyframes tw{0%,100%{opacity:.25}50%{opacity:1}}
    .cloud{animation:drift 26s ease-in-out infinite}@keyframes drift{0%,100%{transform:translateX(0)}50%{transform:translateX(26px)}}
    .petal{transform:translate(var(--x),-30px);animation-name:fall;animation-timing-function:linear;animation-iteration-count:infinite}
    @keyframes fall{0%{transform:translate(var(--x),-30px) rotate(0)}100%{transform:translate(calc(var(--x) - 40px),330px) rotate(220deg)}}
    .name{font-weight:700;letter-spacing:6px;opacity:0;animation:rise 1.3s ease-out .2s forwards}
    .rul{opacity:0;animation:grow 1.1s ease-out .8s forwards;transform-origin:center;transform-box:fill-box}
    @keyframes grow{from{opacity:0;transform:scaleX(0)}to{opacity:1;transform:scaleX(1)}}
    .sub{font-family:"JetBrains Mono","Consolas",monospace;letter-spacing:7px;opacity:0;animation:rise 1.3s ease-out 1s forwards}
    @keyframes rise{from{opacity:0;transform:translateY(8px)}to{opacity:1;transform:translateY(0)}}
    @media (prefers-reduced-motion:reduce){*{animation:none!important;opacity:1!important;transform:none!important}.petal{opacity:0!important}}
  </style>
  <g clip-path="url(#round)">
    <rect width="1000" height="300" fill="url(#sky)"/>
    <rect width="1000" height="300" fill="url(#glow)"/>
    
    <g filter="url(#blur)" opacity="0.85">
      <ellipse class="cloud" cx="240" cy="150" rx="150" ry="20" fill="url(#cloud)"/>
      <ellipse class="cloud" style="animation-delay:-8s" cx="640" cy="120" rx="180" ry="16" fill="url(#cloud)"/>
      <ellipse class="cloud" style="animation-delay:-14s" cx="820" cy="178" rx="140" ry="18" fill="url(#cloud)"/>
    </g>
    <path d="M700,66 q6,-7 12,0 q6,-7 12,0" fill="none" stroke="#3a557f" stroke-width="2" stroke-linecap="round" opacity="0.8"/><path d="M732,56 q6,-7 12,0 q6,-7 12,0" fill="none" stroke="#3a557f" stroke-width="2" stroke-linecap="round" opacity="0.8"/><path d="M764,72 q6,-7 12,0 q6,-7 12,0" fill="none" stroke="#3a557f" stroke-width="2" stroke-linecap="round" opacity="0.8"/>
    <path d="M0,250 Q260,214 520,244 T1000,240 V300 H0 Z" fill="#9fb4d8" opacity="0.55"/>
    <g><rect x="0" y="245" width="54" height="59" fill="#3b5a86"/><rect x="42" y="253" width="4" height="5" fill="#2b4a86" opacity="0.41"/><rect x="6" y="265" width="4" height="5" fill="#2b4a86" opacity="0.31"/><rect x="30" y="265" width="4" height="5" fill="#2b4a86" opacity="0.47"/><rect x="42" y="265" width="4" height="5" fill="#2b4a86" opacity="0.58"/><rect x="30" y="277" width="4" height="5" fill="#2b4a86" opacity="0.31"/><rect x="59" y="250" width="37" height="54" fill="#3b5a86"/><rect x="89" y="258" width="4" height="5" fill="#2b4a86" opacity="0.47"/><rect x="104" y="248" width="68" height="56" fill="#3b5a86"/><rect x="122" y="256" width="4" height="5" fill="#2b4a86" opacity="0.46"/><rect x="122" y="280" width="4" height="5" fill="#2b4a86" opacity="0.53"/><rect x="176" y="222" width="37" height="82" fill="#3b5a86"/><rect x="182" y="242" width="4" height="5" fill="#2b4a86" opacity="0.49"/><rect x="182" y="266" width="4" height="5" fill="#2b4a86" opacity="0.41"/><rect x="216" y="249" width="36" height="55" fill="#3b5a86"/><rect x="257" y="250" width="60" height="54" fill="#3b5a86"/><rect x="263" y="258" width="4" height="5" fill="#2b4a86" opacity="0.37"/><rect x="275" y="270" width="4" height="5" fill="#2b4a86" opacity="0.46"/><rect x="320" y="219" width="39" height="85" fill="#3b5a86"/><rect x="338" y="287" width="4" height="5" fill="#2b4a86" opacity="0.48"/><rect x="364" y="202" width="37" height="102" fill="#3b5a86"/><rect x="394" y="222" width="4" height="5" fill="#2b4a86" opacity="0.52"/><rect x="370" y="282" width="4" height="5" fill="#2b4a86" opacity="0.46"/><rect x="407" y="240" width="41" height="64" fill="#3b5a86"/><rect x="455" y="218" width="37" height="86" fill="#3b5a86"/><rect x="461" y="250" width="4" height="5" fill="#2b4a86" opacity="0.37"/><rect x="461" y="286" width="4" height="5" fill="#2b4a86" opacity="0.57"/><rect x="498" y="251" width="59" height="53" fill="#3b5a86"/><rect x="560" y="219" width="36" height="85" fill="#3b5a86"/><rect x="578" y="239" width="4" height="5" fill="#2b4a86" opacity="0.46"/><rect x="604" y="236" width="42" height="68" fill="#3b5a86"/><rect x="610" y="292" width="4" height="5" fill="#2b4a86" opacity="0.53"/><rect x="651" y="220" width="43" height="84" fill="#3b5a86"/><rect x="669" y="240" width="4" height="5" fill="#2b4a86" opacity="0.54"/><rect x="696" y="219" width="53" height="85" fill="#3b5a86"/><rect x="702" y="263" width="4" height="5" fill="#2b4a86" opacity="0.43"/><rect x="702" y="299" width="4" height="5" fill="#2b4a86" opacity="0.35"/><rect x="757" y="248" width="45" height="56" fill="#3b5a86"/><rect x="775" y="268" width="4" height="5" fill="#2b4a86" opacity="0.31"/><rect x="775" y="280" width="4" height="5" fill="#2b4a86" opacity="0.46"/><rect x="808" y="231" width="46" height="73" fill="#3b5a86"/><rect x="838" y="239" width="4" height="5" fill="#2b4a86" opacity="0.31"/><rect x="838" y="287" width="4" height="5" fill="#2b4a86" opacity="0.54"/><rect x="856" y="218" width="38" height="86" fill="#3b5a86"/><rect x="862" y="226" width="4" height="5" fill="#2b4a86" opacity="0.54"/><rect x="874" y="226" width="4" height="5" fill="#2b4a86" opacity="0.32"/><rect x="874" y="274" width="4" height="5" fill="#2b4a86" opacity="0.58"/><rect x="896" y="223" width="47" height="81" fill="#3b5a86"/><rect x="914" y="231" width="4" height="5" fill="#2b4a86" opacity="0.52"/><rect x="950" y="227" width="68" height="77" fill="#3b5a86"/><rect x="956" y="235" width="4" height="5" fill="#2b4a86" opacity="0.3"/><rect x="1004" y="235" width="4" height="5" fill="#2b4a86" opacity="0.56"/><rect x="956" y="283" width="4" height="5" fill="#2b4a86" opacity="0.33"/><rect x="956" y="295" width="4" height="5" fill="#2b4a86" opacity="0.34"/></g>
    <g class="petal" style="--x:731px;animation-duration:7.6s;animation-delay:5.0s"><path d="M0,0 C4,-5 9,-4 7,2 C6,6 1,6 0,0 Z" fill="#ffffff" opacity="0.8" transform="scale(1.4)"/></g><g class="petal" style="--x:733px;animation-duration:10.7s;animation-delay:0.9s"><path d="M0,0 C4,-5 9,-4 7,2 C6,6 1,6 0,0 Z" fill="#ffffff" opacity="0.8" transform="scale(1.1)"/></g><g class="petal" style="--x:81px;animation-duration:7.1s;animation-delay:5.8s"><path d="M0,0 C4,-5 9,-4 7,2 C6,6 1,6 0,0 Z" fill="#ffffff" opacity="0.8" transform="scale(1.2)"/></g><g class="petal" style="--x:599px;animation-duration:10.0s;animation-delay:0.8s"><path d="M0,0 C4,-5 9,-4 7,2 C6,6 1,6 0,0 Z" fill="#ffffff" opacity="0.8" transform="scale(1.4)"/></g><g class="petal" style="--x:259px;animation-duration:10.3s;animation-delay:1.3s"><path d="M0,0 C4,-5 9,-4 7,2 C6,6 1,6 0,0 Z" fill="#ffffff" opacity="0.8" transform="scale(1.0)"/></g><g class="petal" style="--x:359px;animation-duration:9.0s;animation-delay:4.6s"><path d="M0,0 C4,-5 9,-4 7,2 C6,6 1,6 0,0 Z" fill="#ffffff" opacity="0.8" transform="scale(1.0)"/></g><g class="petal" style="--x:617px;animation-duration:8.7s;animation-delay:0.8s"><path d="M0,0 C4,-5 9,-4 7,2 C6,6 1,6 0,0 Z" fill="#ffffff" opacity="0.8" transform="scale(1.3)"/></g>
    <text class="name" x="500" y="118" text-anchor="middle" font-size="60" fill="#15233f" >ROHITH M</text>
    <rect class="rul" x="430" y="138" width="140" height="2.4" rx="1.2" fill="url(#rule)"/>
    <text class="sub" x="500" y="168" text-anchor="middle" font-size="12" fill="#23365c" opacity="0.92">IT  ·  SECURITY  ·  CLOUD</text>
  </g>
  <rect x="0.75" y="0.75" width="998.5" height="298.5" rx="21.5" fill="none" stroke="#15233f" stroke-opacity="0.35" stroke-width="1.5"/>
</svg>